<svg width="34.000000" height="34.000000" viewBox="0 0 34 34" fill="none" xmlns="http://www.w3.org/2000/svg" xmlns:xlink="http://www.w3.org/1999/xlink">
	<desc>
			Created with Pixso.
	</desc>
	<defs/>
	<rect id="Rectangle Copy" rx="3.000000" width="34.000000" height="34.000000" fill="#373737" fill-opacity="1.000000"/>
	<rect id="Rectangle Copy" rx="3.000000" width="34.000000" height="34.000000" stroke="#979797" stroke-opacity="0" stroke-width="0.000000"/>
	<path id="Path Copy" d="M24.79 12.13C24.21 12.39 23.6 12.56 22.95 12.64C23.61 12.24 24.12 11.61 24.36 10.86C23.74 11.22 23.05 11.49 22.33 11.64C21.74 11.01 20.91 10.62 19.99 10.62C18.23 10.62 16.79 12.06 16.79 13.84C16.79 14.09 16.82 14.34 16.88 14.57C14.22 14.44 11.86 13.16 10.29 11.21C10.01 11.68 9.85 12.24 9.85 12.83C9.85 13.94 10.42 14.93 11.28 15.51C10.75 15.49 10.26 15.35 9.83 15.1C9.83 15.12 9.83 15.13 9.83 15.14C9.83 16.7 10.93 18 12.39 18.3C12.13 18.37 11.84 18.41 11.55 18.41C11.35 18.41 11.15 18.39 10.95 18.36C11.36 19.63 12.54 20.56 13.94 20.59C12.84 21.45 11.46 21.97 9.97 21.97C9.71 21.97 9.45 21.95 9.2 21.92C10.62 22.84 12.3 23.37 14.1 23.37C19.98 23.37 23.2 18.47 23.2 14.21C23.2 14.07 23.2 13.93 23.19 13.8C23.82 13.34 24.36 12.77 24.79 12.13Z" fill="#FFFFFF" fill-opacity="1.000000" fill-rule="nonzero"/>
</svg>
