<svg width="34.000000" height="34.000000" viewBox="0 0 34 34" fill="none" xmlns="http://www.w3.org/2000/svg" xmlns:xlink="http://www.w3.org/1999/xlink">
	<desc>
			Created with Pixso.
	</desc>
	<defs/>
	<rect id="Rectangle Copy 2" rx="3.000000" width="34.000000" height="34.000000" fill="#373737" fill-opacity="1.000000"/>
	<rect id="Rectangle Copy 2" rx="3.000000" width="34.000000" height="34.000000" stroke="#979797" stroke-opacity="0" stroke-width="0.000000"/>
	<path id="XMLID_799_" d="M21.8 9.8C20.75 8.77 19.29 8.2 17.7 8.2C15.27 8.2 13.77 9.22 12.94 10.07C11.92 11.11 11.34 12.5 11.34 13.88C11.34 15.61 12.05 16.94 13.24 17.43C13.32 17.47 13.4 17.48 13.48 17.48C13.73 17.48 13.93 17.31 14 17.05C14.04 16.89 14.14 16.51 14.18 16.35C14.26 16.02 14.19 15.87 14 15.64C13.66 15.23 13.5 14.74 13.5 14.1C13.5 12.2 14.89 10.19 17.46 10.19C19.51 10.19 20.78 11.37 20.78 13.27C20.78 14.46 20.52 15.57 20.06 16.39C19.74 16.96 19.18 17.63 18.31 17.63C17.94 17.63 17.6 17.48 17.39 17.21C17.19 16.95 17.12 16.62 17.2 16.27C17.29 15.88 17.42 15.47 17.54 15.07C17.76 14.35 17.96 13.67 17.96 13.13C17.96 12.2 17.4 11.57 16.56 11.57C15.5 11.57 14.66 12.67 14.66 14.07C14.66 14.76 14.84 15.27 14.93 15.47C14.79 16.05 14 19.48 13.84 20.12C13.76 20.5 13.23 23.48 14.1 23.72C15.08 23.99 15.96 21.09 16.05 20.76C16.12 20.49 16.37 19.48 16.52 18.86C17 19.32 17.76 19.64 18.5 19.64C19.9 19.64 21.15 19 22.03 17.84C22.89 16.72 23.36 15.15 23.36 13.43C23.36 12.09 22.8 10.76 21.8 9.8Z" fill="#FFFFFF" fill-opacity="1.000000" fill-rule="nonzero"/>
</svg>
