<svg width="34.000000" height="34.000000" viewBox="0 0 34 34" fill="none" xmlns="http://www.w3.org/2000/svg" xmlns:xlink="http://www.w3.org/1999/xlink">
	<desc>
			Created with Pixso.
	</desc>
	<defs/>
	<rect id="Rectangle Copy 3" rx="3.000000" width="34.000000" height="34.000000" fill="#373737" fill-opacity="1.000000"/>
	<rect id="Rectangle Copy 3" rx="3.000000" width="34.000000" height="34.000000" stroke="#979797" stroke-opacity="0" stroke-width="0.000000"/>
	<path id="Path" d="M7.22 16.96C7.1 13.76 9.85 10.8 12.99 10.76C14.59 10.62 16.15 11.25 17.37 12.29C16.87 12.85 16.36 13.4 15.82 13.91C14.75 13.25 13.47 12.75 12.22 13.2C10.21 13.78 8.99 16.2 9.74 18.21C10.35 20.3 12.85 21.45 14.81 20.57C15.83 20.2 16.5 19.25 16.79 18.22C15.63 18.2 14.46 18.21 13.3 18.18C13.3 17.48 13.3 16.77 13.3 16.07C15.24 16.06 17.18 16.06 19.12 16.08C19.24 17.81 18.99 19.65 17.89 21.04C16.38 23.02 13.59 23.6 11.32 22.83C8.92 22.02 7.17 19.55 7.22 16.96Z" fill="#FFFFFF" fill-opacity="1.000000" fill-rule="nonzero"/>
	<path id="Path" d="M22.9 14.29C23.48 14.29 24.05 14.29 24.63 14.29C24.63 14.88 24.64 15.47 24.64 16.06C25.22 16.07 25.8 16.07 26.38 16.07C26.38 16.66 26.38 17.25 26.38 17.84C25.8 17.84 25.22 17.85 24.64 17.85C24.64 18.44 24.63 19.03 24.63 19.62C24.05 19.62 23.47 19.62 22.9 19.62C22.89 19.03 22.89 18.44 22.89 17.85C22.31 17.85 21.73 17.84 21.15 17.84C21.15 17.25 21.15 16.66 21.15 16.07C21.73 16.07 22.31 16.07 22.89 16.06C22.89 15.47 22.9 14.88 22.9 14.29Z" fill="#FFFFFF" fill-opacity="1.000000" fill-rule="nonzero"/>
</svg>
