<svg width="34.000000" height="34.000000" viewBox="0 0 34 34" fill="none" xmlns="http://www.w3.org/2000/svg" xmlns:xlink="http://www.w3.org/1999/xlink">
	<desc>
			Created with Pixso.
	</desc>
	<defs/>
	<rect id="Rectangle Copy 4" rx="3.000000" width="34.000000" height="34.000000" fill="#373737" fill-opacity="1.000000"/>
	<rect id="Rectangle Copy 4" rx="3.000000" width="34.000000" height="34.000000" stroke="#979797" stroke-opacity="0" stroke-width="0.000000"/>
	<path id="Shape" d="M13.8125 8.5L20.1875 8.5C23.1211 8.5 25.5 10.8789 25.5 13.8125L25.5 20.1875C25.5 23.1211 23.1211 25.5 20.1875 25.5L13.8125 25.5C10.8789 25.5 8.5 23.1211 8.5 20.1875L8.5 13.8125C8.5 10.8789 10.8789 8.5 13.8125 8.5ZM20.1875 23.9062C22.2381 23.9062 23.9062 22.238 23.9062 20.1875L23.9062 13.8125C23.9062 11.762 22.2381 10.0938 20.1875 10.0938L13.8125 10.0938C11.7619 10.0938 10.0938 11.762 10.0938 13.8125L10.0938 20.1875C10.0938 22.238 11.7619 23.9062 13.8125 23.9062L20.1875 23.9062Z" clip-rule="evenodd" fill="#FFFFFF" fill-opacity="1.000000" fill-rule="evenodd"/>
	<path id="Shape" d="M12.75 17C12.75 14.6528 14.6529 12.75 17 12.75C19.3471 12.75 21.25 14.6528 21.25 17C21.25 19.3472 19.3471 21.25 17 21.25C14.6529 21.25 12.75 19.3472 12.75 17ZM14.3438 17C14.3438 18.4641 15.5359 19.6562 17 19.6562C18.4641 19.6562 19.6562 18.4641 19.6562 17C19.6562 15.5349 18.4641 14.3438 17 14.3438C15.5359 14.3438 14.3438 15.5349 14.3438 17Z" clip-rule="evenodd" fill="#FFFFFF" fill-opacity="1.000000" fill-rule="evenodd"/>
	<path id="Oval" d="M21.6 13.45C22.19 13.45 22.66 12.98 22.66 12.39C22.66 11.8 22.19 11.33 21.6 11.33C21.01 11.33 20.54 11.8 20.54 12.39C20.54 12.98 21.01 13.45 21.6 13.45Z" fill="#FFFFFF" fill-opacity="1.000000" fill-rule="nonzero"/>
</svg>
