<svg width="34.000000" height="34.000000" viewBox="0 0 34 34" fill="none" xmlns="http://www.w3.org/2000/svg" xmlns:xlink="http://www.w3.org/1999/xlink">
	<desc>
			Created with Pixso.
	</desc>
	<defs/>
	<rect id="Rectangle" rx="3.000000" width="34.000000" height="34.000000" fill="#373737" fill-opacity="1.000000"/>
	<rect id="Rectangle" rx="3.000000" width="34.000000" height="34.000000" stroke="#979797" stroke-opacity="0" stroke-width="0.000000"/>
	<path id="Path" d="M20.78 8.21L18.78 8.2C16.53 8.2 15.08 9.7 15.08 12L15.08 13.76L13.07 13.76C12.9 13.76 12.76 13.9 12.76 14.07L12.76 16.61C12.76 16.78 12.9 16.92 13.07 16.92L15.08 16.92L15.08 23.33C15.08 23.51 15.22 23.65 15.4 23.65L18.02 23.65C18.19 23.65 18.33 23.5 18.33 23.33L18.33 16.92L20.68 16.92C20.86 16.92 21 16.78 21 16.61L21 14.07C21 13.99 20.97 13.91 20.91 13.85C20.85 13.79 20.77 13.76 20.68 13.76L18.33 13.76L18.33 12.27C18.33 11.56 18.5 11.19 19.43 11.19L20.78 11.19C20.95 11.19 21.09 11.05 21.09 10.88L21.09 8.52C21.09 8.35 20.95 8.21 20.78 8.21Z" fill="#FFFFFF" fill-opacity="1.000000" fill-rule="nonzero"/>
</svg>
