<svg width="16.000000" height="17.000000" viewBox="0 0 16 17" fill="none" xmlns="http://www.w3.org/2000/svg" xmlns:xlink="http://www.w3.org/1999/xlink">
	<desc>
			Created with Pixso.
	</desc>
	<defs/>
	<path id="Shape" d="M15.7567 15.4844L11.8125 11.2761C12.8267 10.0396 13.3822 8.48364 13.3822 6.86377C13.3822 3.0791 10.3806 0 6.69116 0C3.00171 0 0 3.0791 0 6.86377C0 10.6484 3.00171 13.7275 6.69116 13.7275C8.07617 13.7275 9.39612 13.2988 10.5245 12.4854L14.4988 16.7253C14.6649 16.9023 14.8883 17 15.1278 17C15.3544 17 15.5693 16.9114 15.7325 16.7502C16.0793 16.408 16.0905 15.8403 15.7567 15.4844ZM11.6367 6.86377C11.6367 4.06641 9.41821 1.79053 6.69116 1.79053C3.96411 1.79053 1.74548 4.06641 1.74548 6.86377C1.74548 9.66113 3.96411 11.937 6.69116 11.937C9.41821 11.937 11.6367 9.66113 11.6367 6.86377Z" clip-rule="evenodd" fill="#929EAF" fill-opacity="1.000000" fill-rule="evenodd"/>
</svg>
